<?xml version="1.0" standalone="no"?>
<!DOCTYPE svg PUBLIC "-//W3C//DTD SVG 20010904//EN"
 "http://www.w3.org/TR/2001/REC-SVG-20010904/DTD/svg10.dtd">
<svg version="1.0" xmlns="http://www.w3.org/2000/svg"
 width="896.000000pt" height="896.000000pt" viewBox="0 0 896.000000 896.000000"
 preserveAspectRatio="xMidYMid meet">

<g transform="translate(0.000000,896.000000) scale(0.100000,-0.100000)"
fill="#000000" stroke="none">
<path d="M4310 8634 c-779 -40 -1481 -266 -2115 -681 -468 -308 -838 -672
-1166 -1150 -156 -227 -192 -286 -278 -460 -303 -608 -441 -1185 -441 -1843 0
-300 26 -557 86 -855 103 -513 316 -1015 622 -1465 168 -249 418 -543 656
-773 201 -194 580 -449 921 -619 430 -215 975 -372 1460 -420 173 -17 651 -16
835 1 213 21 205 21 205 -13 0 -42 19 -42 50 -2 27 35 65 49 65 24 0 -33 22
-88 35 -88 8 0 25 17 39 38 13 20 42 57 65 82 36 40 42 43 54 29 7 -9 19 -51
26 -93 8 -42 15 -76 16 -76 2 0 60 56 130 125 70 69 131 125 136 125 5 0 9
-13 9 -29 0 -64 9 -63 88 17 51 51 91 82 117 91 281 94 636 274 925 466 233
156 526 395 516 421 -2 6 3 19 12 28 531 492 939 1171 1136 1891 82 301 122
566 136 914 20 479 -30 900 -155 1326 -48 164 -58 192 -122 349 -157 392 -330
688 -612 1051 -126 163 -452 499 -601 622 -325 266 -623 452 -965 603 -358
158 -618 237 -1005 304 -258 45 -649 71 -880 60z m530 -124 c173 -13 271 -27
440 -62 662 -135 1238 -408 1772 -837 145 -117 409 -375 527 -516 541 -648
831 -1301 942 -2120 20 -144 23 -215 24 -460 0 -400 -28 -648 -110 -975 -81
-323 -160 -541 -299 -820 -198 -397 -443 -736 -768 -1063 -98 -98 -178 -182
-178 -187 0 -5 -53 -52 -117 -106 -117 -96 -293 -219 -468 -326 -117 -72 -400
-218 -422 -218 -34 0 138 158 227 208 161 90 223 129 330 201 159 107 310 224
310 241 0 8 41 51 91 95 511 449 907 1052 1125 1713 65 196 132 508 160 747
23 187 26 262 27 500 0 249 -3 300 -27 464 -66 461 -163 788 -349 1184 -105
221 -217 404 -401 651 -385 518 -874 928 -1432 1201 -465 226 -902 348 -1423
395 -154 15 -630 8 -781 -10 -923 -111 -1709 -489 -2356 -1134 -220 -220 -337
-362 -526 -637 -284 -415 -490 -926 -587 -1454 -99 -543 -75 -1142 70 -1705
114 -444 355 -945 633 -1315 55 -73 86 -112 209 -260 47 -55 196 -207 332
-336 50 -48 103 -100 118 -117 58 -65 354 -272 532 -374 406 -232 893 -405
1335 -477 393 -63 661 -72 1142 -34 l77 6 15 -38 c9 -21 15 -39 14 -40 -11
-10 -253 -27 -443 -32 -605 -15 -1146 82 -1700 304 -352 142 -794 405 -1040
622 -72 64 -448 454 -526 546 -224 267 -437 611 -589 955 -63 141 -129 325
-198 555 -39 131 -92 427 -113 634 -28 273 -23 702 10 939 125 894 513 1666
1165 2318 343 342 639 555 1074 773 278 139 556 236 932 325 130 31 358 65
510 75 85 6 173 13 195 15 57 6 367 -3 515 -14z m20 -160 c479 -47 942 -182
1379 -401 375 -188 732 -449 1026 -750 443 -453 755 -956 930 -1497 86 -268
132 -468 164 -722 62 -486 19 -1111 -104 -1510 -13 -41 -31 -102 -40 -135 -87
-313 -342 -814 -566 -1115 -171 -229 -453 -530 -626 -668 -52 -41 -71 -62 -67
-74 3 -10 1 -18 -5 -18 -5 0 -54 -33 -108 -73 -180 -134 -320 -223 -331 -212
-4 3 -2 9 4 13 5 4 45 49 87 99 43 51 81 93 85 93 4 0 18 10 32 23 14 13 38
32 54 42 15 10 31 26 34 36 4 9 57 56 117 104 197 156 446 415 603 625 134
180 154 209 226 330 368 618 539 1242 539 1970 0 291 -18 473 -78 766 -44 214
-72 311 -171 574 -274 736 -885 1457 -1598 1885 -652 392 -1419 581 -2171 536
-823 -49 -1563 -334 -2195 -845 -147 -119 -414 -381 -525 -516 -214 -259 -414
-567 -528 -811 -194 -417 -300 -810 -347 -1291 -18 -181 -8 -608 19 -803 50
-370 131 -667 269 -989 156 -366 358 -692 606 -976 89 -103 348 -357 440 -433
55 -45 123 -105 150 -133 108 -110 534 -361 791 -467 218 -90 523 -185 730
-227 330 -67 556 -85 943 -76 179 4 282 3 282 -3 0 -5 17 -11 38 -13 29 -2 38
-8 40 -25 3 -19 -3 -22 -55 -30 -32 -4 -231 -8 -443 -8 -405 1 -456 5 -735 56
-530 99 -1001 286 -1450 577 -134 87 -295 210 -295 225 0 7 -21 29 -48 50 -26
21 -112 100 -190 174 -463 439 -804 974 -1000 1568 -100 300 -139 484 -172
805 -55 519 -8 1043 135 1513 185 612 522 1167 989 1632 668 664 1497 1048
2436 1130 179 15 516 13 700 -5z m-832 -242 c-4 -11 -72 -53 -137 -84 -54 -25
-131 -29 -169 -10 -18 9 -32 20 -32 25 0 15 81 43 180 61 115 22 163 24 158 8z
m871 -12 c77 -13 364 -313 396 -414 6 -21 4 -23 -14 -17 -13 4 -28 1 -37 -6
-8 -6 -16 -10 -18 -8 -1 2 -18 27 -36 54 -19 28 -53 69 -76 93 -24 24 -52 62
-64 85 -30 62 -65 101 -83 94 -11 -4 -39 16 -81 56 -37 35 -66 66 -66 70 0 4
10 5 23 3 12 -3 37 -7 56 -10z m328 -21 c80 -26 184 -80 263 -137 192 -141
306 -221 342 -240 40 -21 60 -23 268 -28 213 -5 227 -6 263 -28 40 -25 46 -42
22 -62 -12 -10 -56 -11 -188 -6 -94 4 -184 9 -199 12 -16 2 -28 2 -28 -1 0
-13 96 -103 116 -109 30 -9 205 -186 202 -204 -2 -11 -22 -16 -81 -19 -81 -4
-99 10 -31 23 19 3 33 11 31 18 -6 17 -48 36 -83 36 -22 0 -36 8 -54 32 -15
21 -19 33 -12 36 22 7 12 17 -18 17 -16 0 -29 5 -29 10 0 6 6 9 14 7 13 -2 32
34 23 44 -3 2 -39 7 -81 10 -42 4 -77 11 -77 15 0 5 4 9 9 9 5 0 22 5 37 10
24 9 26 13 13 25 -9 9 -56 18 -134 25 -194 17 -285 41 -285 75 0 22 48 49 99
55 l46 5 -45 29 c-25 16 -128 77 -231 135 -102 59 -192 112 -200 119 -7 6 -52
31 -98 55 -47 23 -87 49 -89 56 -7 21 119 7 215 -24z m-1077 -19 c0 -8 -4 -17
-9 -21 -5 -3 -19 -31 -31 -63 -23 -62 -83 -132 -112 -132 -24 0 -68 29 -68 44
0 17 139 166 164 176 33 13 56 11 56 -4z m300 -20 c0 -15 -62 -27 -104 -19
-38 8 -32 21 12 26 79 8 92 7 92 -7z m-870 -108 c70 -40 40 -61 -46 -33 -26 8
-39 -17 -24 -46 15 -27 5 -39 -32 -39 -21 0 -39 -10 -60 -32 -29 -31 -30 -35
-20 -73 17 -62 -1 -70 -74 -33 -36 17 -46 19 -59 8 -8 -7 -15 -18 -15 -25 0
-24 -57 -38 -123 -30 -34 5 -127 9 -207 11 -213 3 -261 17 -230 64 8 13 47 15
238 17 128 1 247 6 270 12 24 7 94 52 179 116 76 57 144 104 151 105 7 0 31
-10 52 -22z m1119 -240 c20 -17 109 -101 198 -186 89 -86 169 -160 177 -164
12 -7 21 1 38 37 25 51 38 57 38 18 0 -33 28 -195 35 -201 2 -2 16 10 31 27
35 42 48 29 34 -33 -10 -48 -5 -96 11 -96 5 0 9 4 9 9 0 5 16 19 36 30 l37 22
-6 -38 c-3 -21 -11 -71 -18 -111 -16 -90 -13 -93 91 -91 119 3 117 3 81 -30
-17 -16 -31 -33 -31 -38 0 -9 110 -63 220 -108 72 -30 92 -43 85 -55 -3 -5
-56 8 -118 29 -61 21 -130 41 -152 44 l-40 6 35 -21 c19 -11 85 -53 145 -91
61 -39 127 -79 148 -90 43 -22 49 -41 10 -33 -38 8 -164 26 -185 26 -11 0 15
-29 64 -73 105 -93 115 -120 32 -81 -19 9 -37 14 -41 10 -3 -3 19 -38 49 -78
31 -40 57 -82 59 -92 6 -32 22 -19 26 21 5 51 10 53 41 16 21 -24 31 -29 47
-23 41 18 68 10 116 -32 69 -63 72 -64 111 -72 19 -3 43 -15 53 -26 10 -11 25
-20 34 -21 9 0 43 -19 76 -43 43 -31 86 -77 153 -167 93 -124 123 -150 168
-141 30 5 31 23 3 48 -30 27 -52 71 -37 76 12 4 -11 48 -26 48 -4 0 -3 -7 4
-15 7 -9 10 -18 8 -21 -7 -6 -48 45 -48 60 0 6 4 5 9 -3 5 -7 14 -10 20 -7 21
13 11 34 -21 47 -18 7 -44 20 -58 29 -14 10 -47 29 -75 45 -92 50 -208 140
-257 198 -26 32 -48 60 -48 63 0 2 14 3 32 2 18 -1 33 3 36 10 2 7 11 19 19
28 14 14 17 12 33 -13 41 -65 169 -166 285 -225 39 -20 95 -60 126 -91 43 -40
69 -57 105 -66 34 -9 50 -9 52 -2 2 6 10 11 18 11 9 0 14 -12 14 -36 0 -20 4
-33 9 -29 6 3 15 -3 20 -14 13 -23 15 -68 4 -73 -13 -5 -44 -79 -38 -89 3 -5
-2 -6 -12 -3 -11 3 -7 -3 10 -16 25 -20 38 -60 19 -60 -5 0 -30 7 -56 16 -48
17 -69 13 -48 -8 7 -7 12 -23 12 -37 0 -22 16 -35 103 -87 56 -34 163 -99 237
-144 74 -46 214 -132 312 -191 386 -236 534 -359 601 -501 39 -81 41 -95 17
-108 -14 -8 -31 -8 -61 0 -32 9 -65 7 -157 -7 -71 -10 -170 -17 -252 -17 -139
0 -187 11 -307 71 -37 18 -53 11 -53 -22 0 -69 51 -122 154 -159 81 -30 122
-64 220 -180 27 -32 59 -62 72 -68 53 -24 57 -126 9 -252 -56 -148 -140 -238
-290 -311 -52 -25 -98 -45 -103 -45 -34 0 -204 -77 -243 -110 -49 -41 -59 -42
-59 -3 0 13 -7 26 -15 29 -33 13 -70 -14 -121 -86 -28 -41 -57 -76 -64 -78 -7
-3 7 32 30 77 24 44 41 84 37 87 -28 29 -291 -105 -432 -220 -27 -23 -85 -67
-127 -99 -82 -62 -182 -163 -225 -228 -28 -42 -43 -50 -43 -21 0 29 48 88 151
187 176 169 394 332 495 369 27 10 57 26 67 34 17 15 24 62 8 62 -5 0 -66 -29
-137 -64 -71 -35 -176 -83 -233 -105 -57 -23 -118 -49 -135 -58 -35 -18 -134
-104 -277 -240 -53 -51 -102 -93 -108 -93 -27 0 -7 -30 37 -56 58 -35 37 -43
-37 -14 -76 30 -94 26 -51 -11 19 -17 51 -39 70 -49 48 -26 96 -67 88 -75 -3
-4 -40 3 -80 14 -85 24 -88 24 -88 11 0 -5 5 -10 10 -10 6 0 41 -20 78 -44 37
-24 109 -70 161 -102 86 -54 112 -77 98 -90 -3 -3 -38 11 -78 32 -83 41 -149
66 -149 56 0 -4 29 -28 63 -54 89 -68 183 -155 176 -163 -4 -3 -32 10 -64 30
-31 20 -59 35 -61 32 -8 -7 26 -64 65 -108 52 -60 61 -80 68 -152 4 -49 2 -65
-10 -75 -13 -11 -19 -5 -44 44 -30 59 -75 113 -81 95 -2 -5 6 -43 17 -84 13
-46 21 -103 21 -154 0 -134 -36 -192 -53 -85 -9 57 -21 67 -31 25 -7 -26 -108
-253 -193 -433 -20 -41 -46 -106 -60 -143 -25 -72 -83 -200 -88 -195 -4 4 40
210 54 258 14 43 14 78 2 65 -5 -6 -23 -66 -41 -135 -59 -236 -125 -413 -162
-436 -9 -6 -8 56 8 281 4 60 3 77 -6 69 -10 -10 -122 -324 -155 -434 -36 -119
-58 -174 -65 -156 -3 10 -3 41 1 70 4 28 8 87 8 131 1 71 9 135 51 410 5 39
19 101 31 139 26 86 39 74 39 -37 0 -50 4 -76 10 -72 6 3 10 19 10 35 0 26 15
112 42 240 6 30 22 86 36 124 22 62 24 79 17 158 -8 102 -42 239 -81 324 -28
60 -36 75 -166 274 -41 63 -84 129 -94 145 l-19 30 -5 -60 -5 -60 -41 80 c-23
44 -49 94 -58 110 -9 17 -16 35 -16 41 0 6 -9 23 -21 37 -11 15 -22 36 -24 49
-3 12 -10 26 -16 32 -9 8 -10 5 -5 -14 4 -14 10 -47 13 -75 l6 -50 -21 19
c-51 45 -252 374 -293 479 -18 47 -30 101 -34 152 -12 167 -16 190 -27 171 -7
-12 -8 -50 -4 -100 3 -44 9 -132 12 -193 6 -120 -2 -139 -32 -81 -42 82 -54
165 -55 376 0 102 -4 182 -9 182 -5 0 -11 -15 -14 -32 -25 -166 -37 -263 -39
-318 l-2 -65 -16 35 c-30 66 -43 163 -44 315 0 98 5 167 14 200 66 238 89 330
85 335 -10 10 -76 -77 -109 -145 -19 -38 -48 -121 -65 -184 -30 -109 -36 -146
-44 -236 -5 -64 -21 -46 -24 28 -7 170 74 404 202 581 64 89 114 170 115 188
1 8 -77 -76 -145 -157 -64 -75 -172 -235 -200 -297 -12 -25 -27 -71 -34 -102
-16 -80 -34 -72 -28 13 4 51 13 82 33 118 41 71 95 154 123 188 27 32 90 163
112 230 7 22 16 45 20 50 4 6 13 28 20 50 14 44 66 143 115 220 62 95 185 338
222 435 72 190 81 295 33 410 -17 40 -44 95 -61 123 -16 27 -28 51 -26 53 2 2
18 -1 36 -7 17 -6 38 -8 46 -5 8 3 15 1 15 -4 0 -6 16 -10 35 -10 19 0 35 -4
35 -10 0 -12 20 -13 39 -1 11 7 10 14 -8 39 -11 17 -21 32 -21 35 0 3 31 -5
68 -17 65 -22 102 -21 102 3 0 7 -117 84 -167 110 -13 6 -23 15 -23 19 0 13
61 34 86 29 13 -2 24 0 24 4 0 5 31 9 68 9 43 0 75 5 88 14 18 14 17 16 -23
51 -24 20 -43 40 -43 44 0 10 113 26 149 22 13 -1 29 6 37 16 13 17 13 17 14
-1 0 -11 3 -17 6 -13 3 3 17 1 31 -4 14 -5 59 -11 101 -14 42 -2 78 -9 80 -14
2 -6 12 -21 22 -33 33 -41 35 -9 2 57 -36 73 -27 95 14 38 15 -21 31 -42 36
-47 4 -5 16 1 26 14 15 18 17 31 12 52 -12 41 -57 94 -95 112 -19 9 -36 25
-40 35 -8 25 4 71 23 93 18 21 4 43 -33 52 -15 4 -27 16 -31 32 -6 23 -9 24
-50 18 -57 -8 -137 3 -131 19 3 8 23 11 56 10 61 -3 67 11 11 28 -38 12 -54
36 -27 43 68 19 97 31 97 38 0 4 -6 8 -14 8 -7 0 -19 6 -25 14 -7 8 -21 12
-31 9 -11 -3 -20 0 -20 5 0 6 -23 14 -51 18 l-51 7 5 33 c6 36 -19 69 -45 59
-11 -5 -13 6 -10 60 4 54 2 65 -11 65 -9 0 -21 -8 -26 -17 -8 -13 -9 0 -4 47
l6 65 -30 -27 c-37 -36 -43 -35 -43 5 0 42 -10 77 -22 77 -5 0 -19 -11 -32
-25 -31 -34 -36 -32 -36 14 0 75 -19 90 -56 44 -23 -29 -61 -27 -50 3 7 19
-13 94 -26 94 -4 0 -8 -11 -8 -25 0 -14 -4 -33 -10 -43 -5 -9 -14 -29 -20 -44
-5 -16 -14 -28 -20 -28 -6 0 -15 12 -21 28 -31 77 -44 100 -51 89 -4 -7 -5
-29 -1 -51 8 -50 1 -47 -86 37 -41 39 -71 61 -71 52 0 -8 -5 -15 -11 -15 -7 0
-8 -11 -4 -30 8 -36 -6 -39 -50 -10 -44 29 -55 26 -44 -12 15 -54 12 -64 -13
-40 -13 11 -47 30 -76 41 -85 33 -104 25 -58 -24 23 -24 44 -81 34 -91 -3 -2
-73 33 -157 77 -148 78 -229 114 -238 105 -3 -2 36 -35 86 -72 128 -95 124
-102 -35 -54 -54 16 -115 30 -134 30 -31 0 -25 -5 60 -47 101 -49 105 -60 18
-45 -53 10 -68 8 -68 -8 0 -10 139 -82 193 -99 20 -7 37 -17 37 -22 0 -11 9
-12 -80 12 -124 34 -133 35 -125 10 7 -24 -2 -26 -55 -11 -48 13 -328 60 -359
60 -40 0 -13 -16 66 -39 67 -20 92 -35 80 -48 -3 -3 -88 7 -189 22 -101 14
-232 33 -293 41 -124 16 -190 32 -180 42 4 4 59 9 123 12 l117 6 -62 28 c-35
16 -63 33 -63 38 0 4 21 8 48 8 26 1 69 7 96 14 l48 13 -28 22 -29 22 45 -6
c129 -18 146 -18 130 -2 -8 8 -42 29 -75 47 -120 64 -91 68 78 9 108 -38 158
-44 142 -19 -3 5 -49 35 -100 66 -90 53 -112 74 -82 74 8 0 50 -16 94 -35 144
-62 141 -41 -6 48 -58 35 -107 69 -109 75 -6 18 19 6 170 -80 75 -43 142 -78
149 -78 7 0 9 10 5 28 -27 129 -48 262 -43 276 6 14 10 15 29 5 36 -18 167
-111 209 -147 21 -19 43 -31 48 -27 6 3 10 26 9 50 -2 48 2 58 23 50 16 -7 68
-77 85 -114 10 -22 11 -21 18 18 3 23 3 71 0 107 -8 77 3 83 56 29 42 -42 48
-43 52 -8 5 40 20 38 73 -9 26 -24 57 -49 69 -57 12 -8 36 -28 54 -45 27 -26
34 -28 42 -16 5 8 10 20 10 26 0 6 9 21 20 34 11 13 20 34 20 47 0 31 9 29 50
-13 64 -65 70 -64 70 11 0 36 3 65 7 65 3 0 38 -30 77 -67 l71 -68 3 93 c1 50
5 92 9 92 3 0 22 -14 42 -32z m-1582 -102 c-9 -22 -108 -86 -134 -86 -57 0 -3
57 85 90 51 20 58 19 49 -4z m-290 -218 c15 -19 43 -109 38 -118 -3 -4 -26
-11 -52 -15 -26 -4 -64 -14 -85 -22 -32 -13 -78 -13 -355 -4 -174 7 -319 14
-321 16 -3 3 0 10 5 17 6 7 13 25 17 41 l6 27 327 0 326 0 34 35 c37 38 46 41
60 23z m2758 -84 c19 -21 32 -25 77 -25 184 -1 177 0 180 -23 3 -21 23 -23
112 -13 33 4 29 -22 -8 -55 -57 -50 -43 -54 69 -22 98 27 205 48 213 40 4 -4
-4 -17 -18 -27 -69 -55 -120 -103 -120 -113 0 -6 12 -17 28 -24 15 -7 48 -28
75 -47 42 -32 47 -39 47 -75 0 -34 4 -41 26 -46 14 -4 47 -3 75 0 45 6 49 5
49 -14 0 -12 -7 -34 -15 -50 -15 -28 -14 -30 3 -30 25 0 34 -11 22 -25 -6 -7
-9 -30 -8 -51 3 -33 8 -40 48 -61 25 -13 52 -30 60 -38 12 -13 10 -15 -18 -15
-18 0 -32 -4 -32 -8 0 -15 85 -89 135 -117 60 -33 102 -70 121 -107 17 -34 17
-38 0 -38 -7 0 -25 12 -40 26 -20 21 -32 25 -55 21 -22 -5 -48 3 -98 26 -37
18 -103 49 -145 68 -45 19 -76 39 -73 46 2 6 -3 17 -12 25 -14 11 -8 14 43 18
l59 5 -55 28 c-30 16 -86 45 -125 65 l-70 37 60 3 c124 5 107 22 -93 91 -156
54 -182 66 -182 85 0 10 11 11 51 4 83 -15 90 -5 22 30 -34 18 -69 32 -78 32
-8 0 -15 5 -15 11 0 15 -56 2 -98 -22 -35 -20 -52 -24 -52 -11 0 7 53 74 106
134 13 15 24 30 24 34 0 3 -20 2 -45 -2 -54 -8 -95 1 -95 21 0 20 -16 19 -86
-5 -64 -22 -90 -20 -79 8 4 9 9 23 12 30 3 7 -2 12 -11 12 -14 0 -16 6 -10 36
5 29 3 38 -15 50 -29 20 -51 75 -38 92 15 20 46 14 72 -14z m1275 -53 c79 -8
86 -10 112 -42 15 -18 28 -37 28 -42 0 -5 -119 -7 -264 -5 -168 2 -261 7 -255
13 17 17 10 26 -37 47 -35 15 -43 22 -33 29 17 11 334 11 449 0z m-400 -148
c11 -21 27 -48 35 -59 15 -21 14 -23 -27 -44 -40 -21 -42 -21 -55 -3 -7 10
-19 25 -26 33 -27 33 -47 65 -47 77 0 12 47 30 82 32 11 1 26 -14 38 -36z
m-1837 -190 c4 -7 26 -22 48 -33 22 -12 45 -32 51 -45 6 -14 14 -25 18 -25 12
0 19 39 13 76 -4 27 -2 34 10 34 11 0 20 -15 28 -42 6 -24 15 -53 20 -66 5
-13 9 -32 9 -44 0 -30 27 -5 35 33 4 16 11 29 15 29 10 0 26 -52 36 -112 6
-36 9 -38 42 -38 41 0 72 -24 72 -55 0 -12 9 -30 21 -41 13 -12 19 -29 18 -49
-2 -38 14 -79 39 -96 10 -8 21 -28 25 -45 6 -29 4 -31 -16 -27 -12 3 -30 13
-39 21 -12 10 -18 11 -18 3 0 -14 -52 11 -80 39 -19 19 -19 19 -14 -13 7 -43
7 -77 0 -84 -4 -4 -21 8 -39 25 -37 35 -47 33 -47 -10 0 -38 -10 -35 -40 10
-18 28 -25 33 -28 20 -2 -10 -9 -18 -17 -18 -17 0 -125 87 -127 103 0 7 -2 17
-2 24 -1 6 -21 30 -44 53 l-43 42 3 -35 c1 -20 -1 -39 -4 -42 -6 -7 -58 45
-58 57 0 5 -7 8 -15 8 -17 0 -19 -34 -6 -92 8 -35 7 -39 -18 -51 -14 -7 -25
-20 -25 -29 1 -10 -5 -14 -17 -11 -12 3 -21 -1 -25 -12 -4 -9 -17 -20 -29 -25
-12 -5 -30 -26 -40 -47 -10 -21 -23 -45 -30 -53 -17 -19 -16 -90 1 -83 6 2 15
-8 19 -24 3 -15 11 -30 16 -34 5 -3 -13 -28 -41 -55 -28 -27 -48 -54 -46 -61
3 -7 0 -12 -6 -10 -6 1 -13 -4 -16 -12 -3 -10 0 -12 12 -8 9 4 16 1 16 -5 0
-7 13 -9 35 -5 30 5 35 3 35 -13 0 -10 9 -22 21 -25 17 -6 20 -12 15 -33 -4
-15 -9 -38 -11 -52 -2 -14 -7 -43 -11 -65 -7 -38 -7 -39 10 -22 10 9 24 17 32
17 19 0 18 -34 -1 -50 -17 -14 -20 -40 -6 -40 5 0 12 9 16 20 3 11 9 19 13 19
23 -4 32 4 32 25 0 13 7 29 15 36 12 10 13 6 9 -27 -4 -21 -15 -49 -25 -63
-18 -24 -28 -42 -70 -135 -19 -42 -81 -186 -94 -220 -8 -19 -9 -19 -13 3 -2
13 15 86 39 163 34 114 40 141 29 154 -16 19 -34 19 -50 0 -20 -25 -36 -1 -17
25 9 12 13 29 10 38 -5 12 -11 9 -30 -14 -19 -24 -25 -27 -33 -14 -5 8 -8 21
-5 28 3 6 8 19 12 28 7 20 -15 14 -94 -22 -28 -13 -57 -24 -63 -24 -7 0 -26
-6 -43 -14 -49 -22 -98 -36 -121 -36 -21 1 18 25 158 100 79 42 92 56 75 76
-16 19 -58 38 -80 35 -8 -1 -39 4 -67 12 l-53 13 36 26 c37 26 33 48 -5 28
-24 -13 -26 -7 -4 14 14 15 13 16 -6 16 -17 0 -20 4 -15 20 5 15 2 20 -10 20
-10 0 -15 -5 -12 -14 4 -11 1 -11 -18 -2 -24 11 -24 11 -3 22 21 11 21 11 1
30 -11 10 -28 24 -39 31 -17 11 -17 12 -1 12 9 1 17 -3 17 -9 0 -15 26 -12 40
5 11 13 8 15 -14 15 -15 0 -26 6 -26 14 0 18 40 67 50 61 4 -3 13 2 20 10 7 8
17 15 23 15 13 0 47 30 47 42 0 12 -21 5 -42 -14 -21 -21 -48 -23 -48 -4 0 19
22 80 31 86 4 3 3 12 -2 20 -8 11 -12 12 -16 2 -7 -19 -23 -4 -16 16 3 9 14
26 24 37 10 11 21 32 24 48 7 28 48 67 69 67 25 0 66 26 64 39 -2 8 -17 18
-33 22 -17 4 -43 10 -58 13 -39 9 -21 30 41 46 69 19 72 27 14 51 -29 12 -50
25 -46 28 3 3 48 4 100 3 115 -5 126 6 70 68 -29 33 -47 70 -33 70 2 0 52 9
112 20 135 25 165 48 133 100 -21 33 0 35 61 4 l58 -30 -7 26 c-4 14 -11 33
-15 42 -8 20 114 -56 128 -79z m-1409 43 c94 -19 200 -42 236 -50 35 -8 66
-13 68 -11 4 4 -65 35 -79 35 -15 0 -59 23 -59 32 0 13 41 9 115 -11 96 -27
214 -48 310 -56 87 -7 155 -22 155 -33 -1 -34 -15 -51 -43 -54 -23 -2 -33 -9
-36 -23 -4 -24 -19 -35 -48 -35 -31 0 -37 -17 -13 -37 36 -31 26 -46 -25 -39
-48 8 -58 -1 -25 -22 39 -24 23 -34 -46 -27 -65 7 -66 7 -55 -13 19 -36 13
-40 -62 -41 -39 -1 -87 -5 -106 -11 -50 -14 -57 -2 -19 31 l33 28 -70 0 c-232
1 -665 -63 -665 -99 0 -5 19 -11 43 -15 23 -3 50 -9 61 -12 29 -8 -1 -23 -49
-23 -56 -2 -162 -25 -144 -32 9 -4 42 -9 75 -13 166 -18 149 -63 -26 -66 -93
-1 -163 -12 -167 -26 -3 -8 11 -13 39 -15 35 -2 43 -7 43 -23 0 -15 -42 -48
-160 -127 -88 -58 -161 -111 -163 -117 -2 -6 7 -11 20 -11 36 0 51 -15 45 -42
-6 -22 -2 -25 38 -36 83 -22 52 -38 -127 -66 -140 -22 -215 -67 -138 -82 37
-8 38 -17 3 -33 -45 -20 -123 -72 -123 -82 0 -5 11 -7 25 -3 29 7 31 -2 9 -34
-9 -13 -14 -26 -11 -28 5 -5 68 9 103 23 8 3 14 -1 14 -10 0 -8 -36 -38 -80
-66 -90 -57 -140 -117 -207 -247 -44 -87 -60 -134 -43 -134 6 0 29 9 50 20 22
11 40 16 40 10 0 -5 -31 -43 -68 -82 -37 -40 -82 -89 -100 -108 -17 -19 -70
-103 -118 -187 -81 -141 -114 -184 -114 -148 0 8 29 88 65 179 68 171 77 207
46 169 -63 -76 -102 -115 -108 -110 -3 4 1 15 9 24 22 26 178 331 178 348 0
13 -14 14 -85 9 -55 -5 -85 -3 -85 3 0 12 108 117 245 239 160 141 175 161
110 151 -42 -7 -43 -1 -7 39 44 49 86 106 107 148 22 42 68 92 164 179 35 32
61 60 58 63 -3 3 -29 -2 -58 -10 -29 -9 -57 -16 -62 -16 -18 0 14 28 76 65 34
21 76 50 92 63 l30 25 -40 -7 c-22 -4 -75 -21 -118 -38 -133 -51 -113 -33 126
116 59 37 107 72 107 77 0 20 -28 19 -79 -1 -96 -37 -105 -25 -25 38 30 24 54
47 54 52 0 5 -19 10 -42 12 l-43 3 55 28 c120 62 250 143 250 155 0 7 -6 15
-14 18 -8 3 -19 18 -24 34 -8 21 -15 27 -34 24 -12 -2 -77 -14 -143 -25 -164
-28 -195 -33 -195 -26 0 12 88 56 185 92 142 53 290 84 441 94 132 9 185 24
197 56 9 22 38 19 231 -19z m3441 -103 c20 -21 45 -56 57 -78 12 -22 28 -45
37 -51 13 -10 13 -14 2 -28 -8 -10 -21 -14 -33 -10 -10 3 -25 1 -31 -5 -20
-16 -40 3 -35 33 3 17 1 26 -7 26 -7 0 -18 7 -26 16 -10 13 -10 17 1 24 16 10
6 40 -13 40 -8 0 -20 6 -26 14 -10 11 -8 19 6 35 9 12 21 21 25 21 4 0 23 -17
43 -37z m-4805 -233 c13 -9 11 -14 -12 -34 -34 -31 -99 -39 -253 -35 -123 4
-135 9 -135 57 l0 22 193 0 c111 0 198 -5 207 -10z m5667 -65 c38 -7 58 -36
49 -71 -9 -34 -39 -38 -194 -25 -76 7 -203 15 -285 19 l-147 7 30 37 31 37
102 3 c128 4 371 0 414 -7z m-3867 -44 c0 -24 -66 -44 -253 -76 l-98 -17 -24
27 c-14 14 -25 29 -25 33 0 4 55 8 123 10 67 2 154 9 192 16 39 7 73 14 78 15
4 0 7 -3 7 -8z m3326 -158 c31 -65 85 -183 121 -263 36 -80 101 -221 144 -315
l78 -170 335 -5 c204 -3 338 -9 344 -15 13 -14 36 -75 30 -80 -2 -3 -163 -5
-356 -5 -392 -1 -370 4 -332 -70 20 -40 26 -80 12 -80 -4 0 -47 38 -96 85 -88
86 -88 86 -114 69 -23 -15 -26 -15 -34 0 -5 9 -16 16 -24 16 -9 0 -43 16 -75
35 -33 19 -64 35 -69 35 -5 0 -11 4 -14 8 -3 5 53 7 124 4 81 -3 130 -1 130 5
0 16 -56 173 -91 253 -18 41 -33 91 -34 110 -1 20 -7 45 -12 55 -6 11 -8 27
-6 35 4 13 3 13 -6 0 -8 -12 -11 -12 -17 3 -4 12 0 23 11 31 17 12 15 14 -18
20 -34 6 -39 12 -77 92 -22 46 -40 88 -40 93 0 5 -7 14 -15 21 -8 7 -20 30
-27 51 -11 37 -10 41 17 69 16 17 35 30 42 30 7 0 38 -53 69 -117z m-531 -2
c35 -21 78 -65 146 -150 36 -45 20 -56 -24 -15 -15 14 -48 34 -73 45 -25 11
-71 47 -102 80 -31 32 -61 59 -67 59 -11 1 -55 35 -55 43 0 9 136 -39 175 -62z
m-2935 10 c0 -14 -10 -19 -104 -46 -276 -81 -295 -85 -301 -75 -2 4 4 15 15
25 11 10 20 26 20 35 0 32 29 42 152 51 68 5 132 11 143 13 42 7 75 6 75 -3z
m1212 -154 c37 -37 68 -69 68 -72 0 -14 -68 32 -116 79 -42 40 -54 59 -53 82
l0 29 16 -25 c9 -14 47 -55 85 -93z m1990 -9 c46 -22 66 -47 53 -68 -11 -18
-29 -11 -72 30 -66 61 -59 75 19 38z m-3404 1 c-6 -17 -84 -59 -158 -84 -75
-27 -169 -49 -176 -43 -2 3 -6 19 -8 36 -3 28 0 32 20 32 12 0 74 13 136 29
164 42 192 47 186 30z m1029 -6 c-9 -9 -19 -14 -23 -11 -10 10 6 28 24 28 15
0 15 -1 -1 -17z m383 -93 c6 0 10 -4 10 -10 0 -5 -16 -10 -35 -10 -26 0 -39
-6 -51 -25 -25 -38 -34 -30 -34 28 0 46 -4 56 -30 79 -58 50 -29 46 50 -8 44
-30 85 -54 90 -54z m-1620 -85 c-26 -31 -293 -125 -355 -124 -40 0 -40 0 41
39 112 54 179 79 249 94 65 14 82 12 65 -9z m-380 -224 c0 -5 -18 -17 -40 -27
-39 -17 -46 -40 -9 -31 10 3 21 1 24 -3 7 -12 -32 -37 -70 -46 -16 -4 -73 -29
-126 -55 -54 -27 -103 -49 -110 -49 -7 0 9 21 34 46 30 29 47 55 47 70 0 25
19 38 120 80 56 23 130 32 130 15z m-1237 -108 c94 -7 124 -25 113 -68 l-7
-27 -252 5 c-220 5 -315 13 -365 32 -15 5 -4 32 25 60 15 16 36 17 212 11 108
-4 231 -9 274 -13z m3001 -9 c8 -3 12 -12 9 -20 -3 -8 0 -14 6 -14 6 0 11 -3
11 -7 -1 -12 -90 -106 -95 -101 -3 3 2 24 10 48 8 23 15 53 15 65 0 13 6 26
13 28 6 3 13 6 14 6 1 1 8 -2 17 -5z m-324 -47 c-9 -7 -33 -34 -55 -61 -43
-53 -120 -128 -138 -135 -36 -13 95 142 151 179 45 30 71 40 42 17z m-140 -15
c0 -5 -26 -39 -58 -78 -31 -38 -75 -95 -96 -127 -42 -60 -67 -64 -42 -6 23 53
50 89 118 157 59 59 78 72 78 54z m-1435 -48 c-16 -13 -48 -33 -70 -43 -49
-23 -85 -50 -67 -51 7 0 27 7 43 16 29 14 31 14 27 -3 -3 -20 -48 -44 -147
-79 -76 -27 -101 -30 -101 -11 0 36 266 197 325 197 17 -1 16 -4 -10 -26z
m1575 -47 c0 -8 -38 -71 -85 -141 -127 -191 -190 -336 -202 -469 -3 -37 -10
-70 -14 -73 -8 -5 -12 7 -23 75 -8 46 19 231 47 316 20 64 30 78 112 160 82
82 152 145 161 145 2 0 4 -6 4 -13z m-1690 -153 c0 -3 -7 -28 -16 -55 -12 -36
-14 -53 -6 -61 8 -8 15 -8 26 1 9 7 17 8 20 2 4 -5 -19 -35 -50 -66 -30 -31
-53 -59 -51 -62 3 -2 22 3 42 11 44 19 65 20 65 5 0 -10 -20 -34 -92 -110 -47
-50 -52 -80 -8 -48 16 13 33 19 37 16 3 -4 -4 -33 -17 -64 -16 -40 -20 -58
-12 -61 7 -2 12 -8 12 -13 0 -6 10 -23 21 -39 17 -22 20 -37 16 -64 -8 -49 12
-47 57 6 28 32 36 50 36 80 0 36 -1 38 -21 28 -28 -15 -34 -7 -16 22 8 12 18
34 22 48 4 14 17 35 28 48 l21 23 13 -58 c35 -156 23 -258 -54 -471 -19 -53
-42 -121 -50 -150 -31 -102 11 -74 77 53 59 111 80 145 91 145 11 0 7 -21 -28
-144 -20 -74 -22 -94 -12 -112 9 -19 8 -39 -9 -111 -12 -48 -28 -124 -37 -168
-8 -44 -18 -90 -21 -102 -13 -48 18 -21 44 37 42 99 47 52 12 -111 -17 -77
-29 -143 -26 -146 5 -5 15 14 64 127 10 24 11 23 11 -15 1 -22 -6 -95 -16
-163 -21 -156 -8 -181 32 -59 32 98 39 112 54 103 15 -9 14 -52 -3 -156 -21
-126 -30 -247 -18 -235 10 10 45 122 57 185 14 69 20 53 25 -65 5 -117 6 -120
27 -117 18 3 23 -3 27 -32 4 -20 8 -52 11 -71 12 -72 33 -20 25 60 -1 15 1 17
10 9 6 -7 15 -42 20 -78 8 -70 26 -104 43 -87 5 5 10 83 11 173 1 160 0 165
-25 204 -19 29 -26 54 -27 99 -1 33 -5 74 -10 90 l-9 30 -17 -33 c-11 -21 -23
-32 -34 -30 -15 3 -17 22 -17 180 0 97 -2 175 -6 172 -3 -2 -12 -17 -19 -34
-18 -42 -30 -28 -30 35 0 66 -15 78 -47 39 l-23 -29 0 48 c0 27 9 85 21 130
29 115 49 273 49 402 1 158 38 391 79 494 22 55 90 161 103 161 8 0 3 -34 -14
-105 -5 -22 -13 -58 -18 -80 -17 -74 -11 -304 11 -446 21 -144 92 -443 134
-574 33 -103 127 -294 160 -325 25 -23 25 -23 25 -2 0 12 -29 96 -65 187 -64
161 -106 299 -147 480 -29 130 -38 539 -13 614 9 28 20 49 24 46 5 -2 11 -53
15 -112 4 -60 16 -160 27 -223 23 -130 114 -424 163 -527 18 -37 39 -86 46
-108 28 -89 161 -319 246 -429 68 -88 204 -192 204 -156 0 5 -39 50 -86 102
-168 181 -223 273 -274 458 -40 146 -99 347 -110 380 -33 92 -70 373 -51 384
5 4 12 -2 14 -11 11 -38 69 -227 123 -398 31 -99 70 -227 86 -285 42 -149 59
-193 70 -182 5 5 3 37 -8 83 -22 101 -29 185 -15 193 12 8 35 -41 45 -99 29
-159 185 -465 237 -465 11 0 5 16 -65 167 -90 196 -110 253 -88 253 8 0 42
-59 155 -270 71 -131 204 -316 255 -354 24 -18 24 -18 17 5 -9 28 -161 296
-181 320 -8 8 -14 21 -14 28 0 14 62 -61 120 -145 45 -65 202 -271 234 -307
13 -16 31 -38 39 -50 28 -42 29 -8 0 42 -62 111 -150 261 -204 346 -88 141
-113 195 -89 195 5 0 29 -39 53 -87 53 -108 114 -200 254 -388 45 -60 90 -119
100 -130 10 -11 39 -45 64 -75 26 -30 105 -111 175 -180 294 -285 385 -379
448 -463 60 -79 86 -130 74 -143 -3 -2 -65 58 -137 135 -127 134 -168 166
-241 186 -20 6 -11 -8 41 -61 114 -118 330 -384 327 -402 -3 -13 -24 2 -81 57
-42 41 -80 72 -83 68 -3 -3 16 -38 44 -79 70 -105 105 -168 98 -175 -4 -4 -36
22 -73 58 -36 35 -64 57 -61 49 21 -62 21 -61 -6 -50 -39 14 -34 -10 22 -121
l47 -94 1 -110 c0 -60 -2 -114 -4 -119 -3 -5 -16 4 -29 20 l-23 29 -1 -145
c-1 -148 -11 -247 -22 -220 -3 8 -14 58 -22 110 -23 134 -49 230 -64 230 -3 0
-5 -61 -3 -135 2 -75 -1 -143 -7 -152 -8 -14 -10 -11 -15 17 -3 19 -12 76 -20
127 -15 102 -32 129 -71 119 -29 -7 -32 0 -10 24 13 14 13 25 1 81 -62 293
-136 441 -355 707 -158 192 -327 370 -339 357 -4 -4 -1 -10 6 -12 6 -3 12 -13
12 -24 0 -11 20 -50 44 -87 236 -361 292 -482 284 -609 l-3 -48 -23 38 c-29
45 -44 48 -35 5 9 -43 -11 -29 -41 30 l-24 47 5 -75 c2 -41 9 -99 14 -129 5
-30 9 -68 9 -84 0 -24 -3 -27 -14 -18 -8 7 -17 28 -21 49 -18 103 -79 313 -86
296 -3 -11 -3 -46 2 -79 14 -100 22 -321 11 -310 -6 6 -25 55 -43 110 -29 89
-62 161 -80 175 -7 5 -109 201 -232 445 -42 83 -90 175 -107 205 -29 51 -31
52 -24 20 9 -49 50 -172 68 -209 9 -16 16 -38 16 -48 -1 -28 -40 22 -90 114
-38 70 -80 140 -145 243 -13 19 -37 62 -55 95 -17 33 -38 67 -47 75 -14 14
-15 9 -9 -48 4 -41 2 -62 -4 -60 -12 4 -85 97 -158 200 -45 64 -72 88 -57 51
3 -10 9 -39 12 -65 10 -87 -20 -58 -101 95 -25 48 -54 100 -65 115 -10 15 -26
41 -37 57 -27 43 -28 16 -4 -90 11 -49 31 -144 44 -210 13 -66 29 -133 35
-148 6 -16 11 -45 11 -66 0 -24 6 -44 17 -52 15 -13 16 -6 10 89 -3 56 -2 100
2 98 5 -3 37 -72 72 -153 35 -82 69 -159 76 -173 11 -22 13 -22 13 -5 0 11 -7
58 -16 105 -9 47 -20 105 -24 130 -16 83 -13 89 21 50 125 -145 272 -410 309
-557 8 -29 10 -56 6 -60 -4 -5 -23 10 -42 32 -18 22 -34 35 -34 29 0 -15 33
-109 60 -167 12 -26 20 -58 18 -70 -4 -20 -6 -18 -27 16 -13 21 -32 42 -42 48
-17 9 -19 6 -19 -24 0 -18 7 -54 16 -80 8 -25 14 -56 12 -69 -2 -16 -27 20
-92 137 -49 88 -95 170 -103 182 -20 34 -36 28 -31 -12 2 -19 1 -35 -3 -35 -4
0 -31 44 -59 98 -29 53 -67 120 -86 147 -18 28 -42 71 -53 95 -12 27 -21 37
-21 25 0 -25 24 -94 50 -146 25 -48 28 -88 5 -69 -8 7 -15 16 -15 19 0 4 -34
68 -75 142 -41 74 -75 127 -75 118 0 -22 48 -135 116 -276 30 -62 54 -118 54
-125 0 -7 -13 2 -29 20 -34 37 -56 42 -46 11 4 -11 27 -61 51 -111 85 -170 40
-128 -154 147 -197 278 -300 460 -367 648 -30 82 -112 333 -125 380 -7 26 -16
47 -20 47 -4 0 -14 -15 -21 -32 -7 -18 -33 -62 -58 -98 -93 -136 -95 -143 -98
-339 -1 -96 -5 -176 -8 -179 -15 -15 -30 29 -56 165 -16 81 -33 166 -38 188
-6 22 -13 57 -16 78 -3 20 -9 37 -13 37 -4 0 -16 -46 -25 -102 -38 -222 -56
-254 -76 -136 -23 133 -21 130 -49 66 -25 -58 -47 -79 -37 -35 8 34 25 200 21
204 -2 2 -24 -20 -50 -49 -36 -41 -46 -48 -46 -32 0 19 25 61 85 143 24 32 35
78 17 67 -5 -3 -58 -61 -117 -130 -60 -69 -111 -123 -113 -121 -7 7 45 85 137
205 49 63 87 117 85 119 -2 2 -31 -21 -63 -52 -33 -32 -62 -57 -65 -57 -28 0
22 61 187 229 221 223 263 277 319 403 49 110 43 142 -17 102 -13 -9 -31 -14
-39 -12 -12 2 -7 12 19 41 45 49 45 61 0 54 -49 -8 -51 6 -5 46 49 42 51 57 5
57 -45 0 -46 21 -2 49 l32 20 -36 -1 c-57 -2 -63 8 -31 50 29 37 52 75 52 87
0 17 -136 -73 -337 -224 -54 -41 -113 -85 -132 -99 -33 -25 -33 -26 -12 -33
20 -8 21 -10 7 -44 -13 -31 -13 -35 0 -35 8 0 29 7 45 16 17 8 42 14 57 12 24
-3 22 -7 -41 -57 -37 -30 -67 -60 -67 -66 0 -6 -16 -25 -35 -42 -56 -50 -42
-97 20 -65 47 24 139 85 152 102 6 8 15 11 19 7 5 -4 2 -12 -6 -18 -13 -8 -13
-10 0 -18 12 -8 11 -11 -5 -17 -26 -10 -66 -42 -141 -114 -45 -45 -67 -76 -88
-127 -31 -77 -61 -121 -120 -178 -68 -66 -123 -137 -153 -200 -29 -61 -46 -76
-57 -50 -7 19 12 69 98 251 63 133 78 186 57 199 -6 3 -49 -33 -97 -80 -48
-47 -89 -85 -91 -85 -2 0 -3 10 -3 22 0 24 66 151 134 256 85 130 174 321 196
419 17 73 27 95 46 108 13 8 24 22 24 29 0 7 7 20 16 27 14 11 18 10 33 -10
16 -22 24 -23 87 -19 100 7 239 74 313 152 40 43 52 62 47 78 -3 14 5 41 21
70 14 26 24 50 22 52 -2 3 -29 -11 -59 -30 -91 -57 -107 -40 -35 37 25 26 45
53 45 59 0 14 -22 12 -44 -5 -22 -16 -66 -20 -66 -6 0 5 22 26 50 47 62 47 73
68 29 59 -37 -8 -39 -13 38 98 66 95 67 122 5 72 -100 -79 -386 -355 -447
-431 -22 -27 -42 -51 -45 -54 -19 -18 -72 -93 -97 -139 -29 -52 -51 -65 -45
-26 9 73 96 187 294 387 62 64 155 159 206 211 91 95 114 130 71 106 -20 -10
-221 -184 -317 -274 -85 -79 -98 -73 -47 23 28 53 63 96 143 174 133 130 196
172 320 214 97 33 122 39 122 28z m1830 -218 c0 -13 -7 -40 -15 -59 -20 -48
-20 -78 0 -71 23 9 28 -20 11 -61 -35 -82 -4 -120 35 -44 15 29 24 38 31 31 8
-8 6 -18 -6 -36 -22 -35 -20 -41 9 -22 14 9 25 14 25 11 0 -9 -52 -160 -65
-190 -8 -16 -18 -46 -24 -65 -16 -57 -49 -147 -61 -169 -19 -36 -32 -25 -25
22 3 23 2 56 -3 72 l-9 30 -20 -40 c-11 -22 -26 -67 -33 -100 -7 -33 -17 -67
-22 -75 -12 -22 -2 139 11 173 14 36 14 107 1 107 -5 0 -10 -10 -10 -22 0 -35
-20 -98 -30 -98 -14 0 -12 64 4 123 8 29 17 81 21 117 6 61 5 64 -10 43 -9
-12 -24 -54 -34 -92 -9 -39 -24 -78 -33 -88 -8 -10 -20 -27 -26 -38 l-11 -20
0 20 c0 11 6 29 14 39 17 23 19 36 5 36 -5 0 -17 -16 -26 -36 -16 -32 -18 -34
-28 -17 -7 11 -11 76 -11 163 0 144 0 145 33 208 47 92 107 170 121 157 2 -2
-13 -36 -33 -75 -20 -40 -36 -85 -36 -101 0 -18 -4 -28 -10 -24 -5 3 -10 -3
-10 -14 0 -33 9 -25 32 25 24 56 47 47 23 -9 -18 -43 -19 -57 -5 -57 18 0 58
49 133 163 40 59 75 107 79 107 5 0 8 -11 8 -24z m-1515 -110 c-7 -29 -18 -70
-24 -89 -7 -20 -15 -72 -19 -117 -4 -44 -11 -81 -17 -83 -14 -3 -18 139 -6
188 14 55 59 155 70 155 4 0 3 -24 -4 -54z m-1517 -436 c5 -53 -1 -55 -218
-58 -181 -3 -203 -2 -221 14 -10 9 -19 27 -19 40 0 21 5 23 68 27 37 2 139 3
227 3 l160 -1 3 -25z m6674 -46 c-4 -25 -96 -114 -117 -114 -14 0 -15 8 -9 58
3 31 8 59 11 62 5 5 94 18 108 15 6 -1 9 -11 7 -21z m208 -10 c35 -8 45 -23
36 -57 -6 -26 -58 -47 -114 -47 -27 0 -32 5 -41 38 -19 67 -17 72 38 72 27 0
63 -3 81 -6z m-440 -198 c0 -27 -17 -43 -31 -29 -12 12 1 53 17 53 8 0 14 -10
14 -24z m45 -113 c-11 -37 -20 -117 -25 -219 -6 -150 -9 -165 -33 -207 -42
-71 -131 -137 -154 -113 -3 3 4 32 17 63 63 161 91 253 106 341 22 134 30 158
67 181 17 11 33 18 35 16 2 -2 -4 -30 -13 -62z m-290 -633 c27 -10 75 -96 75
-135 0 -11 11 -37 25 -57 33 -49 32 -62 -5 -54 -36 7 -36 6 -10 -44 17 -33 18
-43 8 -59 -10 -16 -7 -25 15 -55 16 -20 23 -37 17 -41 -15 -9 -21 -3 -86 84
-54 73 -84 103 -84 82 0 -4 34 -62 75 -128 41 -67 75 -126 75 -133 0 -6 -15
-10 -37 -8 l-38 3 3 -92 c5 -136 -21 -121 -68 39 -34 116 -46 115 -42 -3 4
-96 -2 -115 -26 -86 -5 6 -22 51 -37 100 -14 48 -29 87 -32 87 -3 0 -3 -42 0
-93 7 -99 -3 -139 -25 -102 -7 11 -26 74 -43 140 -28 105 -42 156 -61 215 -7
19 -81 -60 -90 -96 -10 -38 -28 -23 -38 29 -4 26 -14 47 -21 47 -7 0 -34 -20
-61 -45 -43 -40 -51 -44 -70 -34 -21 11 -35 33 -48 73 -5 15 -9 16 -22 5 -9
-7 -20 -24 -25 -37 -14 -37 -34 -20 -37 32 -4 54 11 78 42 71 25 -6 86 28 86
49 0 7 7 19 16 26 13 11 16 10 21 -8 3 -12 7 -22 10 -22 3 0 35 26 71 58 72
63 190 144 238 163 92 36 180 48 229 29z m-6267 -122 c4 -43 -10 -54 -75 -57
-69 -3 -121 15 -138 50 -12 23 -13 30 -3 34 27 9 66 12 138 11 l75 -1 3 -37z
m6810 -70 c9 -19 10 -33 3 -45 -8 -16 -21 -17 -139 -12 -98 4 -137 10 -156 23
-27 17 -35 51 -13 60 6 2 75 4 152 3 l140 -2 13 -27z m-1418 -18 c0 -5 -36
-37 -81 -71 -44 -33 -99 -82 -122 -107 -61 -70 -147 -152 -158 -152 -21 0 17
46 139 170 128 129 222 197 222 160z m431 -333 c13 -13 29 -32 35 -43 10 -15
15 -16 25 -7 10 10 10 18 1 38 -15 33 -15 35 2 35 8 0 24 -12 35 -27 12 -16
21 -23 20 -18 -3 22 2 25 20 15 19 -10 51 -113 39 -125 -10 -11 -33 6 -51 36
-14 25 -20 29 -31 19 -8 -6 -32 -10 -53 -8 -32 3 -41 9 -60 43 -37 65 -27 86
18 42z m-131 -2 c9 -11 22 -14 41 -10 24 5 30 2 44 -25 14 -28 14 -31 0 -36
-9 -4 -27 -2 -41 5 -14 6 -36 11 -49 11 -18 0 -26 7 -31 24 -10 42 12 60 36
31z m120 -308 c0 -7 -14 -40 -30 -72 -17 -33 -29 -63 -27 -69 2 -5 127 -9 302
-10 305 -1 355 -7 355 -40 0 -7 -9 -24 -19 -37 l-19 -24 -307 -3 c-169 -2
-318 -1 -330 2 -29 7 -98 99 -97 129 0 12 15 48 34 79 l33 57 53 1 c36 0 52
-4 52 -13z m-397 -83 c79 -60 171 -158 275 -291 51 -67 100 -182 73 -171 -9 3
-157 183 -171 208 -20 35 -23 -6 -6 -68 26 -91 30 -155 15 -210 -21 -80 -137
-297 -236 -444 -95 -140 -132 -208 -114 -208 5 0 18 11 29 25 25 32 46 33 36
3 -9 -31 -70 -134 -107 -183 -47 -61 -498 -505 -514 -505 -7 0 -13 4 -13 8 0
10 52 89 133 202 52 71 137 228 179 330 28 67 49 176 46 235 l-3 60 -21 -55
c-12 -30 -34 -89 -49 -130 -39 -106 -119 -273 -139 -289 -14 -12 -16 -11 -16
7 0 11 11 62 25 113 39 150 50 219 34 219 -5 0 -9 -7 -9 -15 0 -16 -54 -141
-127 -295 -25 -52 -57 -124 -71 -160 -32 -81 -50 -110 -69 -110 -20 0 -14 22
48 184 60 154 113 315 106 322 -3 3 -29 -41 -59 -98 -127 -238 -174 -318 -187
-318 -8 0 -11 7 -8 18 3 9 37 109 75 222 38 113 85 256 103 319 33 112 58 167
59 129 0 -45 27 -12 90 110 41 80 55 89 46 31 -3 -24 -9 -62 -12 -84 -4 -27
-3 -37 4 -30 10 10 27 52 76 192 26 75 32 82 50 57 15 -19 15 -19 29 0 8 10
19 16 25 12 14 -8 19 13 27 109 10 120 20 119 67 -5 9 -24 10 -24 20 -6 9 16
2 150 -13 233 -4 20 2 53 9 53 6 0 47 -114 80 -225 l9 -30 7 25 c13 43 40 100
47 100 3 0 17 -24 29 -52 20 -45 24 -49 28 -29 2 13 -1 44 -8 70 -14 55 -101
237 -163 340 -25 41 -43 80 -40 88 18 47 105 -28 196 -169 128 -199 162 -247
175 -248 8 0 12 6 10 13 -5 19 -59 113 -104 181 -81 121 -79 133 11 60 31 -25
58 -44 60 -43 2 2 -41 58 -96 124 -54 66 -99 123 -99 128 -1 21 44 0 123 -59z
m-5041 -31 c18 -4 33 -42 26 -64 -4 -13 -133 -20 -163 -9 -28 11 -61 69 -43
75 39 13 130 12 180 -2z m153 -3 c29 -11 64 -48 65 -67 0 -9 -15 -13 -42 -13
-69 0 -85 8 -91 43 -2 18 -3 35 0 40 6 10 37 9 68 -3z m789 -494 c8 -14 69
-80 133 -148 154 -161 237 -264 229 -283 -13 -35 -55 -16 -142 65 -100 93 -54
83 -414 84 -208 1 -253 4 -297 19 -51 18 -72 42 -54 60 19 19 113 26 354 26
131 1 237 4 235 9 -60 119 -87 192 -69 192 5 0 16 -11 25 -24z m4499 -234 c32
-28 17 -54 -38 -70 -87 -24 -90 -23 -89 27 1 29 7 48 18 57 22 15 84 7 109
-14z m-3381 -239 c26 -55 43 -107 46 -139 5 -59 -12 -81 -29 -37 -6 15 -31 70
-56 122 -30 64 -42 102 -38 118 11 45 35 25 77 -64z m-406 -249 c35 -12 110
-19 259 -24 116 -5 224 -11 242 -15 25 -6 35 -3 49 14 23 26 39 26 64 1 16
-16 33 -20 86 -20 37 0 84 -5 106 -12 34 -10 40 -9 52 7 13 18 15 18 50 -4 40
-25 63 -58 49 -72 -5 -5 -49 -5 -105 0 -98 10 -138 6 -138 -11 0 -27 41 -76
164 -192 75 -70 136 -134 136 -142 0 -25 -44 -38 -73 -22 -15 7 -109 95 -210
196 l-184 182 -172 0 c-94 0 -171 -4 -171 -9 0 -13 56 -60 115 -98 28 -17 104
-55 170 -83 239 -102 390 -177 390 -195 0 -6 -37 -11 -83 -13 -143 -5 -209 23
-495 208 -87 56 -181 112 -210 125 -60 28 -159 55 -199 55 -23 0 -28 4 -28 23
0 29 55 117 73 117 8 0 36 -7 63 -16z m-192 -25 c4 -3 7 -23 9 -45 l2 -39
-110 -9 c-120 -9 -177 0 -226 35 -16 11 -29 29 -29 39 0 16 9 20 63 23 88 6
284 3 291 -4z m1534 -410 c-5 -35 -28 -36 -28 -1 0 16 3 32 7 36 11 11 25 -10
21 -35z"/>
<path d="M5595 6333 c19 -30 99 -113 109 -113 21 0 -2 39 -49 86 -60 58 -88
71 -60 27z"/>
<path d="M5106 6055 c-10 -28 11 -37 75 -31 35 3 71 6 79 6 10 0 7 7 -10 20
-19 15 -38 20 -82 18 -33 -1 -59 -6 -62 -13z"/>
<path d="M5838 6042 c-24 -5 -34 -48 -19 -87 6 -17 11 -42 11 -54 0 -21 -3
-23 -34 -17 -32 6 -34 5 -39 -30 -8 -48 7 -86 30 -77 10 3 23 10 29 15 6 4 18
6 26 3 9 -4 18 1 21 9 4 9 13 16 21 16 8 0 17 13 21 30 14 66 88 10 88 -67 0
-35 4 -43 18 -43 28 0 43 -36 29 -70 -11 -26 -14 -27 -41 -16 -28 10 -32 8
-62 -28 -29 -34 -34 -37 -46 -22 -19 23 -31 20 -42 -13 -11 -30 -45 -51 -82
-51 -13 0 -29 -6 -35 -12 -9 -9 -17 -10 -30 -2 -11 7 -26 8 -40 3 -29 -11 -18
-32 11 -23 21 6 21 6 4 -13 -12 -15 -16 -29 -11 -47 4 -16 2 -26 -5 -26 -6 0
-11 6 -12 13 -1 6 -6 -5 -13 -27 -11 -35 -20 -43 -117 -93 -57 -30 -105 -58
-107 -63 -5 -13 42 -23 66 -15 36 11 32 -11 -8 -53 -22 -22 -40 -44 -40 -47 0
-4 16 -4 35 -1 38 8 46 -5 19 -31 -11 -11 -12 -19 -4 -27 8 -8 13 -7 20 4 7
12 12 11 29 -4 12 -11 21 -25 21 -33 0 -7 7 -13 15 -13 22 0 19 -40 -2 -40
-13 -1 -9 -5 11 -16 15 -9 36 -14 46 -11 12 3 20 -2 23 -14 4 -13 18 -20 56
-25 32 -4 51 -11 51 -20 0 -23 20 -26 55 -10 43 21 65 12 65 -26 0 -26 3 -29
23 -22 12 3 34 13 49 20 23 12 52 20 80 23 4 1 14 8 23 17 13 13 21 14 40 6
23 -11 95 -5 95 7 0 8 -74 31 -100 31 -14 0 -20 7 -20 21 0 19 -4 21 -36 16
-20 -3 -44 -13 -54 -22 -25 -22 -30 -19 -30 19 0 46 -34 60 -61 25 -10 -13
-19 -18 -19 -12 0 9 -11 11 -34 7 -28 -4 -35 -1 -41 16 -3 11 -11 20 -16 20
-5 0 -9 7 -9 15 0 8 7 15 15 15 8 0 15 7 15 15 0 18 -50 21 -66 5 -20 -20 -34
13 -26 61 10 61 33 71 152 67 58 -2 96 1 97 7 1 6 -7 9 -18 8 -10 -2 -19 1
-19 6 0 5 -14 11 -31 15 -17 3 -42 15 -56 26 -14 11 -31 20 -37 20 -18 0 -106
88 -106 105 0 23 24 45 60 55 39 11 51 -7 20 -30 l-23 -18 22 -12 c13 -6 31
-10 42 -7 10 3 28 -4 40 -14 27 -23 61 -26 53 -4 -4 8 -16 15 -28 15 -12 0
-27 9 -34 21 -11 18 -11 24 4 40 22 24 47 8 38 -26 -5 -20 -3 -22 21 -17 26 5
27 3 20 -29 -4 -25 -3 -30 4 -19 8 11 11 12 11 2 0 -7 5 -10 10 -7 6 3 10 1
10 -5 0 -15 117 -7 132 8 15 15 114 16 123 2 3 -5 21 -10 39 -10 34 0 76 -27
69 -46 -2 -6 15 -19 37 -29 44 -20 52 -42 18 -47 -12 -2 -23 -9 -26 -17 -3 -8
0 -11 6 -7 6 3 13 2 16 -3 3 -4 28 -11 55 -15 28 -4 77 -20 111 -37 46 -23 60
-35 60 -52 0 -12 9 -28 20 -35 11 -7 20 -22 20 -35 1 -28 19 -52 48 -61 17 -6
22 -15 22 -42 0 -19 -4 -34 -10 -34 -5 0 -10 -5 -10 -11 0 -8 12 -10 35 -6 21
3 40 1 47 -6 7 -7 26 -18 43 -25 30 -14 47 -34 76 -87 18 -33 28 -36 43 -13 6
10 4 26 -7 48 -17 32 -15 50 4 50 16 0 48 -42 49 -63 0 -14 3 -15 19 -5 18 11
18 14 5 39 -22 43 -18 69 9 69 13 0 28 -5 35 -12 9 -9 12 -8 12 8 0 24 -17 51
-26 41 -9 -9 -34 12 -34 29 0 8 7 14 15 14 8 0 15 7 15 15 0 19 -19 19 -41 -1
-16 -14 -18 -13 -24 15 -3 17 -4 35 -1 40 4 5 -1 16 -10 25 -11 12 -20 13 -34
6 -14 -7 -21 -6 -27 3 -4 8 -16 16 -25 20 -11 4 -18 17 -18 33 0 23 -3 25 -25
20 -14 -4 -25 -2 -25 4 0 5 -10 10 -22 10 -24 0 -48 37 -48 73 0 16 -5 18 -40
12 -37 -6 -40 -5 -40 15 0 19 -4 21 -25 16 -26 -7 -55 11 -55 33 0 6 -19 11
-44 11 -24 0 -46 5 -48 11 -5 14 -120 29 -134 18 -7 -6 -16 -3 -24 6 -7 9 -34
25 -60 36 -55 24 -108 73 -90 84 6 4 27 4 46 1 37 -7 37 -6 34 50 -2 44 40 77
86 68 30 -5 34 -3 40 20 8 32 -21 70 -90 117 -27 19 -61 52 -75 74 -28 42 -80
95 -132 134 l-32 25 5 -37 c2 -20 2 -37 0 -37 -4 0 -163 138 -177 154 -5 7
-18 10 -27 8z m177 -612 c-6 -29 -14 -40 -31 -40 -8 0 -13 -4 -10 -8 2 -4 -4
-9 -16 -9 -14 -1 -18 3 -14 13 3 9 6 20 6 24 0 8 45 36 62 39 4 1 5 -8 3 -19z
m910 -390 c3 -5 1 -10 -4 -10 -6 0 -11 5 -11 10 0 6 2 10 4 10 3 0 8 -4 11
-10z"/>
<path d="M5280 5775 c-11 -14 -7 -19 12 -16 16 2 1 -42 -20 -58 -19 -15 -19
-17 -4 -31 14 -13 15 -12 9 3 -3 9 -2 19 3 22 14 8 13 -28 -1 -42 -7 -7 -6
-12 5 -16 9 -4 16 -2 16 4 0 6 10 9 23 8 45 -5 84 19 57 36 -6 4 -8 11 -5 16
6 8 -9 13 -29 10 -4 -1 -15 4 -23 11 -13 10 -13 13 1 24 20 14 11 44 -14 44
-10 0 -23 -7 -30 -15z"/>
<path d="M6394 5608 c4 -24 13 -46 20 -50 8 -4 17 -20 21 -35 3 -15 17 -40 31
-56 13 -16 24 -39 24 -53 0 -27 24 -33 34 -8 4 11 14 14 34 9 60 -13 58 44 -4
102 -28 26 -39 28 -50 11 -5 -8 -2 -9 10 -5 13 5 17 2 14 -11 -4 -23 -20 -20
-34 7 -6 12 -20 29 -31 36 -11 7 -25 32 -33 54 -19 57 -45 56 -36 -1z"/>
<path d="M5515 5502 c-10 -10 -5 -21 13 -25 13 -4 12 -5 -5 -6 -12 0 -24 5
-26 12 -4 8 -6 8 -6 0 -1 -6 -10 -9 -21 -6 -11 3 -20 0 -20 -6 0 -6 8 -11 18
-11 13 0 14 -2 3 -9 -11 -7 -10 -11 7 -20 17 -9 24 -7 38 11 11 16 15 17 11 6
-8 -22 -4 -22 38 -2 18 8 35 24 38 35 6 22 -12 25 -32 7 -11 -11 -13 -10 -8 3
4 12 -1 17 -18 17 -13 0 -27 -3 -30 -6z"/>
<path d="M6724 5429 c-3 -6 -1 -16 5 -22 8 -8 11 -5 11 11 0 24 -5 28 -16 11z"/>
<path d="M6803 5384 c-11 -30 88 -91 130 -80 40 10 33 35 -18 57 -24 11 -47
24 -50 29 -10 16 -55 11 -62 -6z"/>
<path d="M4850 5311 c-6 -12 -8 -21 -5 -21 3 0 1 -9 -5 -21 -16 -28 -40 -148
-33 -165 7 -19 39 -1 57 34 20 39 28 168 11 182 -10 9 -16 6 -25 -9z"/>
<path d="M5340 5320 c0 -5 -7 -10 -16 -10 -11 0 -14 -5 -10 -16 3 -9 6 -18 6
-20 0 -15 48 1 62 20 17 23 17 24 -4 18 -14 -3 -19 -1 -14 6 4 7 1 12 -8 12
-9 0 -16 -4 -16 -10z"/>
<path d="M6640 5305 c7 -8 17 -15 22 -15 6 0 5 7 -2 15 -7 8 -17 15 -22 15 -6
0 -5 -7 2 -15z"/>
<path d="M6970 5295 c0 -10 10 -15 30 -15 32 0 40 14 14 24 -27 10 -44 7 -44
-9z"/>
<path d="M7040 5290 c0 -13 50 -33 59 -24 7 7 -28 34 -46 34 -7 0 -13 -5 -13
-10z"/>
<path d="M6154 5249 c-12 -20 13 -33 30 -16 9 9 16 18 16 21 0 11 -39 6 -46
-5z"/>
<path d="M6195 5230 c-3 -5 3 -10 14 -10 12 0 21 5 21 10 0 6 -6 10 -14 10 -8
0 -18 -4 -21 -10z"/>
<path d="M5970 5220 c0 -5 5 -10 10 -10 6 0 10 5 10 10 0 6 -4 10 -10 10 -5 0
-10 -4 -10 -10z"/>
<path d="M6105 5210 c3 -5 11 -10 16 -10 6 0 7 5 4 10 -3 6 -11 10 -16 10 -6
0 -7 -4 -4 -10z"/>
<path d="M6850 5130 c0 -5 5 -10 10 -10 6 0 10 5 10 10 0 6 -4 10 -10 10 -5 0
-10 -4 -10 -10z"/>
<path d="M5145 5120 c-3 -6 1 -7 9 -4 24 9 19 -6 -8 -27 -19 -15 -24 -27 -21
-57 1 -20 -1 -42 -7 -49 -6 -7 -2 -25 11 -52 12 -22 21 -47 21 -56 0 -8 5 -15
10 -15 6 0 10 -9 10 -19 0 -11 7 -27 16 -35 8 -9 18 -32 21 -51 3 -20 10 -38
14 -41 5 -3 9 -14 9 -26 0 -11 14 -33 32 -50 18 -16 39 -51 48 -76 19 -54 37
-64 45 -25 4 15 12 44 19 65 10 27 11 39 2 48 -8 8 -5 15 12 28 l22 17 -22 15
c-13 8 -27 15 -33 15 -5 0 -9 9 -7 19 3 15 -1 18 -23 14 -26 -5 -26 -4 -20 33
4 23 3 39 -3 39 -5 0 -19 18 -30 40 -17 35 -18 43 -6 55 16 16 19 29 4 20 -13
-8 -13 1 2 25 10 15 10 22 1 31 -9 9 -15 6 -24 -15 -17 -36 -31 -28 -44 23 -5
23 -13 40 -17 36 -3 -4 -12 3 -18 15 -9 16 -9 25 -1 33 6 6 11 17 11 24 0 15
-26 18 -35 3z"/>
<path d="M4850 5072 c-31 -14 -80 -56 -80 -69 0 -7 -4 -13 -10 -13 -5 0 -10
-4 -10 -10 0 -21 20 -8 75 45 54 52 60 62 25 47z"/>
<path d="M4810 4945 c-82 -79 -109 -114 -115 -144 -2 -13 1 -21 10 -21 8 0 20
-10 26 -22 10 -18 8 -24 -10 -39 -21 -17 -28 -39 -13 -39 12 0 42 34 42 46 0
6 14 29 31 52 16 22 29 42 28 44 -1 2 1 14 6 27 4 13 2 28 -4 34 -7 7 1 22 29
50 22 21 40 42 40 47 0 24 -21 14 -70 -35z"/>
<path d="M5555 4960 c3 -5 11 -10 16 -10 6 0 7 5 4 10 -3 6 -11 10 -16 10 -6
0 -7 -4 -4 -10z"/>
<path d="M7132 4900 c3 -8 -2 -20 -11 -27 -24 -18 0 -38 32 -27 l25 9 -25 30
c-14 17 -23 23 -21 15z"/>
<path d="M7186 4784 c-9 -8 -16 -26 -16 -39 0 -26 26 -44 101 -70 l38 -14 -28
47 c-16 26 -32 57 -36 70 -7 26 -37 29 -59 6z"/>
<path d="M4976 4751 c-4 -7 -5 -15 -2 -18 9 -9 19 4 14 18 -4 11 -6 11 -12 0z"/>
<path d="M4767 4712 c-10 -10 -17 -23 -17 -29 0 -6 -8 -21 -19 -34 -10 -13
-22 -35 -26 -49 -4 -14 -16 -43 -26 -65 -16 -35 -29 -79 -79 -265 -15 -53 -50
-291 -50 -335 l0 -38 23 21 c13 12 26 22 30 22 4 0 7 -39 7 -86 0 -98 14 -108
40 -29 9 27 19 44 23 39 9 -15 11 -249 3 -263 -4 -6 -3 -11 2 -11 5 0 20 24
33 53 l24 52 3 -118 3 -118 36 30 c20 17 38 29 40 28 2 -3 16 -100 29 -204 3
-24 9 -43 14 -43 4 0 13 30 20 68 19 113 30 108 30 -13 0 -133 10 -245 21
-245 5 0 16 28 26 62 10 34 23 63 29 65 6 2 16 -27 23 -64 18 -98 34 -152 43
-147 4 3 8 14 8 25 0 10 5 19 10 19 13 0 27 -35 51 -124 10 -38 25 -76 33 -84
13 -14 14 -9 10 44 -3 32 -7 67 -9 77 -6 30 20 18 40 -19 10 -19 29 -47 41
-61 12 -14 31 -45 43 -69 31 -61 51 -58 51 6 0 59 13 63 41 15 12 -19 25 -35
29 -35 5 0 12 -9 15 -20 9 -28 25 -25 25 5 0 48 34 20 67 -55 11 -25 28 -51
37 -59 16 -14 18 -11 16 35 -4 116 4 131 38 66 48 -93 106 -172 117 -160 7 6
-34 129 -63 188 -62 130 -85 156 -175 198 -72 34 -87 45 -111 85 -15 26 -31
47 -36 47 -4 0 -11 -13 -15 -30 -11 -48 -21 -44 -45 18 -12 31 -34 84 -50 117
-15 33 -31 70 -35 83 -9 32 -25 17 -25 -23 0 -37 -16 -56 -23 -28 -3 10 -13
54 -22 98 -8 44 -18 91 -21 104 -6 29 -19 18 -33 -29 -9 -33 -10 -31 -7 20 2
30 -3 114 -10 185 -20 182 -40 220 -58 110 -8 -46 -30 -80 -45 -70 -6 3 -11
40 -11 83 0 98 -8 113 -46 83 -32 -25 -38 -23 -25 12 7 18 7 28 0 33 -6 3 -8
27 -5 57 2 28 0 57 -5 64 -7 8 -7 19 1 33 18 34 0 47 -25 16 l-22 -27 5 57 c4
45 2 56 -9 52 -8 -3 -13 -12 -13 -21 1 -9 -2 -14 -7 -11 -5 2 -11 -8 -15 -23
-27 -124 -26 -12 2 181 9 64 -9 60 -51 -12 -27 -46 -55 -68 -55 -43 0 5 18 54
41 108 22 54 45 112 51 128 6 17 16 36 21 43 8 10 7 16 -3 22 -11 7 -11 19 4
72 9 35 14 71 11 80 -4 9 -2 19 4 23 13 7 15 45 3 45 -5 0 -16 -8 -25 -18z"/>
<path d="M5926 4713 c-8 -9 -14 -10 -49 -12 -12 0 -34 -12 -49 -26 -15 -14
-34 -25 -43 -25 -8 0 -15 -4 -15 -10 0 -6 27 -10 62 -10 56 0 65 3 94 31 18
17 30 38 27 45 -6 16 -16 18 -27 7z"/>
<path d="M7816 4711 c-4 -5 12 -24 34 -41 63 -50 91 -22 34 34 -17 17 -59 22
-68 7z"/>
<path d="M4966 4695 c4 -8 8 -15 10 -15 2 0 4 7 4 15 0 8 -4 15 -10 15 -5 0
-7 -7 -4 -15z"/>
<path d="M5771 4681 c-8 -5 -9 -11 -3 -15 5 -3 15 1 22 9 14 16 3 20 -19 6z"/>
<path d="M5933 4637 c-24 -24 -43 -47 -43 -50 0 -13 40 -7 40 6 1 17 69 -125
94 -197 l21 -60 120 -17 c128 -18 227 -37 367 -68 96 -22 168 -25 168 -7 0 6
-7 25 -16 41 -12 22 -14 45 -10 91 3 33 3 64 -1 67 -4 4 -19 -4 -34 -19 -39
-38 -64 -29 -64 23 0 39 -28 88 -45 78 -4 -2 -12 6 -18 19 -11 25 -40 28 -65
7 -13 -10 -18 -9 -27 9 -6 11 -8 30 -5 40 7 23 5 24 -30 8 -14 -6 -25 -17 -25
-25 0 -8 -7 -25 -16 -38 -13 -20 -20 -23 -35 -15 -10 6 -16 16 -13 23 2 7 -2
21 -10 32 -13 18 -15 18 -39 2 -30 -20 -38 -14 -30 24 5 26 3 28 -13 22 -11
-3 -23 -12 -27 -20 -11 -19 -77 -17 -77 2 0 8 -4 15 -10 15 -5 0 -10 7 -10 15
0 21 -10 19 -37 -7 -25 -24 -35 -20 -38 15 -3 36 -27 30 -72 -16z m532 -107
c3 -5 1 -10 -4 -10 -6 0 -11 5 -11 10 0 6 2 10 4 10 3 0 8 -4 11 -10z"/>
<path d="M4680 4651 c-16 -30 -12 -36 10 -16 21 19 26 35 10 35 -5 0 -14 -9
-20 -19z"/>
<path d="M4982 4648 c-16 -16 -15 -38 2 -38 13 0 26 20 26 41 0 13 -14 11 -28
-3z"/>
<path d="M5037 4616 c-4 -10 -1 -13 9 -9 15 6 19 23 5 23 -5 0 -11 -7 -14 -14z"/>
<path d="M7060 4585 c-11 -13 -11 -29 0 -85 13 -67 15 -70 41 -70 15 0 30 3
32 8 7 10 -43 162 -53 162 -4 0 -13 -7 -20 -15z"/>
<path d="M5005 4579 c-4 -5 -1 -9 5 -9 6 0 8 -10 5 -23 -5 -18 -2 -24 10 -24
12 0 15 7 12 24 -2 13 0 23 4 23 5 0 9 4 9 8 0 11 -39 12 -45 1z"/>
<path d="M5385 4514 c-14 -31 -25 -59 -25 -63 0 -3 -7 -19 -15 -35 -16 -30
-12 -46 11 -46 8 0 14 -7 14 -15 0 -9 7 -18 15 -21 10 -4 12 -15 8 -35 -5 -28
-5 -29 37 -29 41 0 42 -1 35 -27 -20 -73 -39 -68 245 -65 257 3 306 0 643 -44
125 -16 142 -16 180 -2 33 12 42 20 42 38 0 21 -9 27 -74 47 -145 46 -233 57
-458 57 l-212 1 -43 42 c-78 75 -88 83 -102 83 -8 0 -16 -5 -18 -11 -4 -11
-26 9 -59 53 -16 22 -25 26 -50 21 -24 -5 -28 -3 -23 11 9 22 -34 60 -51 46
-18 -15 -42 -2 -49 26 -10 38 -24 29 -51 -32z"/>
<path d="M5070 4480 c-19 -14 -22 -22 -13 -31 8 -8 15 -5 28 15 22 34 17 40
-15 16z"/>
<path d="M5052 4403 c-9 -24 -10 -42 -3 -87 0 -4 12 -5 26 -2 l25 6 -4 -115
c-3 -63 -1 -115 3 -115 4 0 13 10 20 23 7 12 26 32 41 45 l29 23 -2 -43 c0
-24 2 -49 7 -56 4 -7 4 -21 1 -32 -5 -14 -2 -20 9 -20 9 0 16 6 16 13 0 7 8
17 19 24 17 11 19 8 19 -35 1 -38 6 -50 27 -65 14 -10 25 -24 25 -31 0 -17
-45 -37 -65 -29 -13 4 -15 0 -9 -23 9 -38 12 -40 34 -26 11 7 26 12 34 12 7 0
19 7 26 15 7 8 34 15 63 17 46 3 52 6 55 26 2 13 -6 41 -18 64 -20 38 -20 42
-4 59 15 17 15 19 1 25 -23 8 -34 -2 -42 -36 -5 -21 -13 -30 -26 -30 -11 0
-19 6 -18 13 1 6 -1 42 -5 80 l-8 67 -43 0 c-45 0 -55 12 -55 68 0 16 -6 22
-22 24 -13 0 -29 2 -37 2 -11 1 -15 17 -15 69 -1 66 -1 67 -28 67 -15 0 -33 7
-42 15 -20 20 -22 19 -34 -12z"/>
<path d="M7175 4350 c-4 -6 -3 -16 3 -22 6 -6 12 -6 17 2 4 6 3 16 -3 22 -6 6
-12 6 -17 -2z"/>
<path d="M6962 4310 c-8 -13 -8 -20 -1 -20 5 0 7 -6 3 -12 -5 -10 -4 -10 5 -2
7 7 11 21 9 33 -3 22 -3 22 -16 1z"/>
<path d="M7360 4255 c0 -16 22 -45 31 -40 15 10 11 23 -11 35 -11 6 -20 8 -20
5z"/>
<path d="M7216 4193 c-10 -11 -7 -63 4 -63 8 0 30 40 30 55 0 7 -28 13 -34 8z"/>
<path d="M4816 4173 c-6 -14 -5 -15 5 -6 7 7 10 15 7 18 -3 3 -9 -2 -12 -12z"/>
<path d="M7511 4125 c-1 -26 2 -45 9 -45 5 0 10 11 10 24 0 13 5 26 12 28 15
5 3 38 -15 38 -9 0 -14 -15 -16 -45z"/>
<path d="M7041 4123 c-12 -42 -8 -51 14 -33 16 14 21 70 5 70 -5 0 -14 -17
-19 -37z"/>
<path d="M5573 4123 c20 -62 40 -111 53 -128 14 -19 28 -20 325 -23 l311 -3
50 52 c32 33 54 49 64 45 9 -3 18 -6 21 -6 3 0 -5 -11 -18 -25 -47 -48 -61
-67 -54 -73 3 -4 36 -8 73 -10 62 -4 69 -2 92 23 17 19 21 29 13 32 -18 6 -16
23 1 23 9 0 14 9 13 20 -1 16 -8 20 -37 19 -24 0 -29 -3 -17 -7 14 -6 6 -13
-35 -34 -50 -26 -79 -29 -48 -5 8 7 22 21 30 32 8 11 11 17 6 13 -4 -3 -16 2
-25 11 -14 14 -49 20 -167 29 -123 10 -391 24 -613 31 -38 2 -43 0 -38 -16z"/>
<path d="M7351 4089 c-6 -18 -11 -43 -11 -56 0 -37 24 -23 31 18 4 19 10 42
14 52 5 12 3 17 -8 17 -8 0 -20 -14 -26 -31z"/>
<path d="M6842 4068 c-12 -48 -9 -57 16 -42 19 13 24 75 6 81 -6 2 -16 -15
-22 -39z"/>
<path d="M7158 4017 c-26 -62 -24 -77 10 -68 25 7 27 11 27 56 0 62 -15 67
-37 12z"/>
<path d="M6992 3926 c-13 -31 -8 -46 9 -29 6 6 9 21 7 34 -4 24 -5 23 -16 -5z"/>
<path d="M5725 3905 c-27 -13 -56 -24 -62 -24 -7 -1 -13 -10 -13 -22 0 -18 -4
-19 -32 -14 -120 25 -246 14 -296 -26 -14 -10 -35 -19 -48 -19 -13 0 -24 -5
-24 -11 0 -29 71 -106 153 -168 121 -91 186 -149 203 -183 14 -27 11 -26 -55
17 -38 25 -81 49 -94 54 -24 9 -26 8 -23 -17 1 -15 7 -26 13 -25 17 3 41 -30
45 -62 2 -23 16 -38 61 -69 56 -38 62 -40 131 -38 129 2 401 85 480 145 18 14
53 45 76 67 24 23 55 49 69 58 107 67 271 215 271 243 0 16 -20 10 -54 -16
-33 -25 -66 -33 -66 -16 0 5 14 22 32 38 61 54 88 85 82 94 -9 15 -17 10 -73
-41 -66 -62 -88 -66 -58 -11 12 22 20 42 17 44 -3 3 -52 8 -110 12 -105 6
-105 6 -152 -23 -45 -30 -132 -134 -228 -277 -99 -147 -171 -243 -185 -249
-31 -11 -13 27 53 117 73 98 176 240 257 355 28 39 59 75 70 81 14 7 -41 10
-185 10 -196 0 -207 -1 -255 -24z m79 -54 c10 -15 -116 -92 -130 -79 -12 12
23 51 61 68 46 21 62 24 69 11z"/>
<path d="M6647 3871 c-24 -41 -2 -54 30 -17 28 32 29 46 5 46 -10 0 -25 -13
-35 -29z"/>
<path d="M6795 3877 c-4 -10 -5 -21 -1 -24 10 -10 18 4 13 24 -4 17 -4 17 -12
0z"/>
<path d="M7365 3849 c-11 -17 1 -21 15 -4 8 9 8 15 2 15 -6 0 -14 -5 -17 -11z"/>
<path d="M7129 3814 c-5 -15 -7 -30 -3 -33 7 -7 34 28 34 46 0 23 -20 14 -31
-13z"/>
<path d="M6953 3778 c-5 -7 -15 -26 -21 -41 -12 -27 -11 -28 10 -22 27 8 58
41 58 61 0 17 -34 18 -47 2z"/>
<path d="M6775 3759 c-4 -11 -4 -23 0 -27 7 -7 25 17 25 36 0 20 -18 14 -25
-9z"/>
<path d="M6680 3726 c0 -8 -7 -16 -15 -20 -17 -6 -52 -73 -43 -81 3 -3 17 0
31 6 33 15 59 66 46 91 -12 22 -19 23 -19 4z"/>
<path d="M6514 3648 c-40 -29 -102 -71 -139 -93 -138 -83 -153 -116 -34 -75
82 27 214 102 227 128 10 17 25 92 20 92 -2 0 -35 -24 -74 -52z"/>
<path d="M6732 3635 c-18 -39 -15 -65 7 -65 14 0 21 10 25 35 11 56 -11 76
-32 30z"/>
<path d="M5390 3530 c0 -6 7 -10 15 -10 8 0 15 2 15 4 0 2 -7 6 -15 10 -8 3
-15 1 -15 -4z"/>
<path d="M5975 3320 c-135 -42 -244 -69 -305 -76 -94 -10 -102 -20 -49 -65 47
-40 49 -56 5 -40 -15 6 -26 7 -26 1 0 -16 87 -80 118 -86 28 -6 39 0 84 39 76
65 252 230 256 239 5 12 -17 9 -83 -12z"/>
<path d="M5280 2563 c0 -4 33 -77 74 -163 41 -87 79 -182 86 -217 15 -72 30
-83 30 -20 0 130 -51 285 -122 371 -26 31 -68 49 -68 29z"/>
<path d="M5440 2552 c0 -4 13 -48 30 -97 39 -115 60 -237 61 -355 0 -96 9
-144 23 -122 3 6 8 90 9 186 l2 174 -55 107 c-51 100 -70 128 -70 107z"/>
<path d="M5604 2318 c3 -38 11 -78 17 -90 12 -22 12 -22 19 -3 9 25 -5 98 -25
133 -16 26 -16 25 -11 -40z"/>
<path d="M5920 6941 c0 -10 30 -24 37 -17 3 2 -5 9 -16 16 -12 6 -21 7 -21 1z"/>
<path d="M4930 6470 c0 -5 5 -10 11 -10 5 0 7 5 4 10 -3 6 -8 10 -11 10 -2 0
-4 -4 -4 -10z"/>
<path d="M4375 6430 c-3 -5 -2 -10 4 -10 5 0 13 5 16 10 3 6 2 10 -4 10 -5 0
-13 -4 -16 -10z"/>
<path d="M4410 6401 c0 -7 -4 -9 -10 -6 -5 3 -10 -2 -10 -12 0 -16 1 -16 17 0
9 9 14 20 10 23 -4 4 -7 2 -7 -5z"/>
<path d="M4296 6314 c-4 -15 -5 -28 -2 -31 8 -8 47 37 41 47 -12 19 -33 10
-39 -16z"/>
<path d="M3920 6006 c7 -7 14 -6 21 1 9 9 7 12 -9 10 -14 -1 -18 -5 -12 -11z"/>
<path d="M3960 6009 c0 -5 5 -7 10 -4 6 3 10 8 10 11 0 2 -4 4 -10 4 -5 0 -10
-5 -10 -11z"/>
<path d="M2980 6779 c-77 -9 -173 -31 -215 -49 l-30 -13 44 -8 c24 -5 46 -10
48 -13 8 -7 -69 -43 -107 -50 -45 -8 -145 -65 -134 -76 9 -8 62 4 224 50 41
12 113 26 160 31 47 5 114 18 150 29 36 10 112 23 169 29 58 6 106 13 109 15
10 11 -47 28 -155 46 -124 21 -158 22 -263 9z"/>
<path d="M2460 4634 c-44 -40 -61 -81 -39 -94 19 -12 45 5 74 48 25 37 34 82
15 82 -5 0 -28 -16 -50 -36z"/>
<path d="M2372 4035 c-8 -17 -38 -71 -68 -121 -50 -85 -67 -134 -45 -134 14 0
95 128 115 182 9 26 16 60 14 75 l-3 28 -13 -30z"/>
<path d="M1750 3959 c0 -5 5 -7 10 -4 6 3 10 8 10 11 0 2 -4 4 -10 4 -5 0 -10
-5 -10 -11z"/>
<path d="M2343 3777 c-22 -29 -49 -71 -60 -92 -23 -47 -36 -105 -24 -105 12 0
95 125 121 181 38 85 20 93 -37 16z"/>
<path d="M2382 3660 c-30 -32 -67 -105 -76 -149 -6 -34 -6 -34 14 -16 31 28
92 143 88 168 l-3 22 -23 -25z"/>
<path d="M3580 3431 c0 -5 46 -42 101 -83 187 -135 498 -397 639 -538 30 -30
93 -99 139 -152 46 -54 88 -98 92 -98 14 0 0 112 -18 139 -68 107 -373 375
-650 573 -118 84 -303 181 -303 159z"/>
<path d="M4010 3022 c0 -18 61 -95 160 -202 58 -63 115 -127 126 -142 39 -50
294 -311 294 -300 0 22 -34 97 -59 132 -118 162 -288 343 -422 451 -86 68 -99
76 -99 61z"/>
<path d="M7305 3490 c-10 -16 26 -60 49 -60 11 0 30 -7 40 -15 11 -8 30 -15
43 -15 20 0 23 5 23 38 0 62 -43 87 -55 32 -6 -27 -25 -43 -25 -20 0 13 -41
50 -56 50 -7 0 -16 -4 -19 -10z"/>
<path d="M7225 3450 c-3 -5 -17 -10 -30 -10 -36 0 -40 -18 -10 -46 46 -43 75
-29 75 37 0 29 -22 41 -35 19z"/>
</g>
</svg>
